# xmcd
#
# Track frame offsets:
#	150
#	21075
#	38450
#	62345
#	83032
#	109762
#	128132
#	149072
#	166270
#	182505
#
# Disc length: 2680
#
# Revision: 2
# Processed by: cddbd v1.5.1PL0 Copyright (c) Steve Scherf et al.
# Submitted via: CDex 1.51
# Normalized: r1:DSETVAR1,TDELIM( - )
#
DISCID=780a760a
DTITLE=Various Artist - Meditation:Revive
DYEAR=1997
DGENRE=Jazz
TTITLE0=Fred Simon - (I Watched Her) Walk Away
TTITLE1=Suzanne Ciani - Love Song
TTITLE2=Tim Story - Reading Those Letters
TTITLE3=Richard Dworsky - A Morning With The Roses
TTITLE4=Darol Anger and Barbara Higbie Quintet - The Light In The Sky Are Stars
TTITLE5=Ira Stein and Russel Walder - Engravings
TTITLE6=Yanni - After The Sunrise
TTITLE7=Michael Manring - Hopeful
TTITLE8=Nightnoise - Her Kansas Sun
TTITLE9=Jim Brickman - So Long
EXTD=YEAR: 1997
EXTT0=
EXTT1=
EXTT2=
EXTT3=
EXTT4=
EXTT5=
EXTT6=
EXTT7=
EXTT8=
EXTT9=
PLAYORDER=
